<?xml version="1.0" encoding="UTF-8" standalone="no"?>
<!DOCTYPE svg PUBLIC "-//W3C//DTD SVG 1.1//EN" "http://www.w3.org/Graphics/SVG/1.1/DTD/svg11.dtd">
<svg xmlns="http://www.w3.org/2000/svg" version="1.1" viewBox="0.00 0.00 500.00 500.00">
<g stroke-width="2.00" fill="none" stroke-linecap="butt">
<path stroke="#808080" vector-effect="non-scaling-stroke" d="
  M 127.76 123.18
  Q 130.44 125.28 135.83 125.07"
/>
<path stroke="#008080" vector-effect="non-scaling-stroke" d="
  M 135.83 125.07
  Q 144.38 120.56 151.62 113.33
  C 152.92 112.03 153.52 110.76 153.52 109.00
  Q 153.52 99.17 153.47 89.31
  Q 153.47 88.80 152.96 88.80
  L 150.74 88.81"
/>
<path stroke="#808080" vector-effect="non-scaling-stroke" d="
  M 150.74 88.81
  L 148.30 88.59"
/>
<path stroke="#800080" vector-effect="non-scaling-stroke" d="
  M 148.30 88.59
  Q 145.10 87.16 141.20 87.95
  Q 140.75 88.04 140.75 88.51
  L 140.75 106.73
  Q 140.75 107.30 140.32 107.68
  L 132.19 114.72"
/>
<path stroke="#008080" vector-effect="non-scaling-stroke" d="
  M 132.19 114.72
  L 125.02 108.60
  Q 124.55 108.20 124.55 107.59
  L 124.55 89.27
  Q 124.55 88.80 124.08 88.80
  L 121.78 88.77"
/>
<path stroke="#808080" vector-effect="non-scaling-stroke" d="
  M 121.78 88.77
  Q 119.63 88.89 118.90 88.39"
/>
<path stroke="#800080" vector-effect="non-scaling-stroke" d="
  M 118.90 88.39
  Q 115.80 87.31 112.27 87.90
  Q 111.79 87.98 111.79 88.47
  Q 111.76 98.61 111.98 108.75
  Q 112.02 110.84 113.97 112.54
  Q 122.85 120.28 125.80 122.69
  Q 126.44 123.22 127.76 123.18"
/>
<path stroke="#ff80ff" vector-effect="non-scaling-stroke" d="
  M 118.90 88.39
  L 115.03 88.91
  Q 114.50 88.98 114.50 89.52
  L 114.50 109.98
  A 3.58 3.58 0.0 0 0 115.73 112.68
  L 127.76 123.18"
/>
<path stroke="#80ffff" vector-effect="non-scaling-stroke" d="
  M 121.78 88.77
  L 121.77 107.69
  A 1.17 1.17 0.0 0 0 122.18 108.58
  L 132.29 117.28
  Q 132.70 117.63 133.07 117.25
  L 133.61 116.68"
/>
<path stroke="#80ffff" vector-effect="non-scaling-stroke" d="
  M 150.74 88.81
  Q 150.75 99.29 150.56 109.75
  Q 150.51 112.04 148.71 113.46
  Q 142.00 118.77 135.83 125.07"
/>
<path stroke="#ff80ff" vector-effect="non-scaling-stroke" d="
  M 148.30 88.59
  L 143.93 88.95
  Q 143.42 88.99 143.43 89.50
  L 143.47 107.72
  Q 143.47 108.19 143.11 108.50
  L 133.61 116.68"
/>
<path stroke="#8080ff" vector-effect="non-scaling-stroke" d="
  M 133.61 116.68
  Q 133.46 115.82 132.19 114.72"
/>
<path stroke="#808080" vector-effect="non-scaling-stroke" d="
  M 161.35 95.18
  L 161.43 95.51
  Q 161.56 95.99 162.05 96.00
  L 173.31 96.23"
/>
<path stroke="#800080" vector-effect="non-scaling-stroke" d="
  M 173.31 96.23
  L 173.25 116.39
  Q 173.25 116.85 172.78 116.85
  L 159.28 116.73
  Q 158.79 116.72 158.79 117.22
  L 158.79 123.31
  A 0.63 0.62 -87.5 0 0 159.36 123.94
  L 161.23 124.13"
/>
<path stroke="#808080" vector-effect="non-scaling-stroke" d="
  M 161.23 124.13
  Q 161.33 124.45 161.69 124.72
  Q 161.95 124.93 162.37 124.93
  Q 180.23 125.08 197.93 124.96"
/>
<path stroke="#008080" vector-effect="non-scaling-stroke" d="
  M 197.93 124.96
  L 200.03 124.97
  Q 200.50 124.97 200.50 124.50
  L 200.50 118.27
  Q 200.50 117.80 200.03 117.77
  L 197.77 117.61"
/>
<path stroke="#808080" vector-effect="non-scaling-stroke" d="
  M 197.77 117.61
  L 195.15 117.44"
/>
<path stroke="#800080" vector-effect="non-scaling-stroke" d="
  M 195.15 117.44
  Q 191.18 116.04 186.02 117.14"
/>
<path stroke="#008080" vector-effect="non-scaling-stroke" d="
  M 186.02 117.14
  L 186.00 96.19"
/>
<path stroke="#808080" vector-effect="non-scaling-stroke" d="
  M 186.00 96.19
  L 197.74 96.13"
/>
<path stroke="#008080" vector-effect="non-scaling-stroke" d="
  M 197.74 96.13
  L 199.96 96.06
  Q 200.50 96.04 200.50 95.51
  L 200.50 89.26
  Q 200.50 88.80 200.03 88.80
  L 197.75 88.82"
/>
<path stroke="#808080" vector-effect="non-scaling-stroke" d="
  M 197.75 88.82
  L 195.21 88.74"
/>
<path stroke="#800080" vector-effect="non-scaling-stroke" d="
  M 195.21 88.74
  L 194.60 88.14
  A 1.26 1.24 -23.0 0 0 193.74 87.80
  L 159.25 87.78
  Q 158.79 87.78 158.79 88.25
  L 158.79 94.51
  Q 158.79 95.00 159.28 95.04
  L 161.35 95.18"
/>
<path stroke="#ff80ff" vector-effect="non-scaling-stroke" d="
  M 195.21 88.74
  L 162.17 88.80
  A 0.74 0.74 0.0 0 0 161.43 89.52
  L 161.35 95.18"
/>
<path stroke="#80ffff" vector-effect="non-scaling-stroke" d="
  M 197.75 88.82
  L 197.74 96.13"
/>
<path stroke="#80ffff" vector-effect="non-scaling-stroke" d="
  M 186.00 96.19
  Q 184.79 95.89 183.84 96.07
  A 0.67 0.66 -5.2 0 0 183.29 96.72
  L 183.28 117.00
  Q 183.28 117.45 183.70 117.62
  Q 184.68 118.04 185.56 117.66"
/>
<path stroke="#ff80ff" vector-effect="non-scaling-stroke" d="
  M 185.56 117.66
  L 195.15 117.44"
/>
<path stroke="#80ffff" vector-effect="non-scaling-stroke" d="
  M 197.77 117.61
  L 197.93 124.96"
/>
<path stroke="#ff80ff" vector-effect="non-scaling-stroke" d="
  M 161.23 124.13
  L 161.46 118.38
  A 0.63 0.62 -0.0 0 1 162.07 117.78
  L 175.68 117.52
  A 0.32 0.32 0.0 0 0 176.00 117.20
  L 176.00 96.71
  Q 176.00 96.14 175.43 96.16
  L 173.31 96.23"
/>
<path stroke="#8080ff" vector-effect="non-scaling-stroke" d="
  M 186.02 117.14
  Q 186.81 117.12 185.56 117.66"
/>
<path stroke="#808080" vector-effect="non-scaling-stroke" d="
  M 208.04 124.04
  L 208.49 124.52
  Q 208.84 124.88 209.34 124.88
  L 240.51 124.88"
/>
<path stroke="#008080" vector-effect="non-scaling-stroke" d="
  M 240.51 124.88
  C 245.97 124.38 247.35 120.86 247.52 115.78
  C 247.63 112.32 248.15 108.97 245.39 107.24
  Q 244.83 106.90 245.39 106.55
  C 246.57 105.80 247.20 105.20 247.35 103.70
  C 247.95 97.96 248.31 88.32 239.45 88.96"
/>
<path stroke="#808080" vector-effect="non-scaling-stroke" d="
  M 239.45 88.96
  L 237.14 88.32"
/>
<path stroke="#800080" vector-effect="non-scaling-stroke" d="
  M 237.14 88.32
  Q 221.59 87.35 206.18 87.91
  Q 205.80 87.92 205.80 88.31
  L 205.80 123.33
  Q 205.80 123.91 206.38 123.95
  L 208.04 124.04"
/>
<path stroke="#ff80ff" vector-effect="non-scaling-stroke" d="
  M 237.14 88.32
  L 209.30 88.72
  A 0.82 0.82 0.0 0 0 208.49 89.54
  Q 208.52 106.41 208.49 123.56
  Q 208.49 123.77 208.41 123.90
  Q 208.23 124.18 208.04 124.04"
/>
<path stroke="#80ffff" vector-effect="non-scaling-stroke" d="
  M 239.45 88.96
  C 246.14 92.13 244.77 97.47 244.74 103.51
  Q 244.73 105.73 242.26 106.63
  Q 241.65 106.86 242.25 107.13
  C 245.98 108.79 244.78 115.40 244.75 118.80
  Q 244.73 121.24 240.51 124.88"
/>
<path stroke="#808080" vector-effect="non-scaling-stroke" d="
  M 258.13 124.26
  Q 274.29 125.68 291.68 124.79"
/>
<path stroke="#008080" vector-effect="non-scaling-stroke" d="
  M 291.68 124.79
  Q 292.77 125.11 293.81 124.97
  Q 294.24 124.91 294.24 124.47
  L 294.24 118.27
  Q 294.24 117.80 293.78 117.77
  L 291.41 117.59"
/>
<path stroke="#808080" vector-effect="non-scaling-stroke" d="
  M 291.41 117.59
  Q 289.91 117.67 289.81 117.40"
/>
<path stroke="#800080" vector-effect="non-scaling-stroke" d="
  M 289.81 117.40
  Q 277.76 116.11 265.36 117.03"
/>
<path stroke="#008080" vector-effect="non-scaling-stroke" d="
  M 265.36 117.03
  L 265.28 110.75"
/>
<path stroke="#808080" vector-effect="non-scaling-stroke" d="
  M 265.28 110.75
  L 291.44 110.74"
/>
<path stroke="#008080" vector-effect="non-scaling-stroke" d="
  M 291.44 110.74
  L 293.70 110.59
  Q 294.24 110.55 294.24 110.01
  L 294.25 103.75
  Q 294.25 103.28 293.77 103.28
  L 291.51 103.28"
/>
<path stroke="#808080" vector-effect="non-scaling-stroke" d="
  M 291.51 103.28
  L 289.00 103.08"
/>
<path stroke="#800080" vector-effect="non-scaling-stroke" d="
  M 289.00 103.08
  Q 288.26 102.13 286.74 102.12
  Q 276.05 102.02 265.28 102.15"
/>
<path stroke="#008080" vector-effect="non-scaling-stroke" d="
  M 265.28 102.15
  L 265.27 96.20"
/>
<path stroke="#808080" vector-effect="non-scaling-stroke" d="
  M 265.27 96.20
  L 291.65 96.15"
/>
<path stroke="#008080" vector-effect="non-scaling-stroke" d="
  M 291.65 96.15
  L 293.70 96.07
  Q 294.24 96.05 294.24 95.51
  L 294.24 89.25
  Q 294.24 88.79 293.78 88.80
  L 291.53 88.84"
/>
<path stroke="#808080" vector-effect="non-scaling-stroke" d="
  M 291.53 88.84
  L 289.03 88.72"
/>
<path stroke="#800080" vector-effect="non-scaling-stroke" d="
  M 289.03 88.72
  L 288.42 88.14
  A 1.19 1.16 -22.5 0 0 287.60 87.81
  Q 275.46 87.79 263.35 87.78
  C 257.34 87.77 252.65 89.00 252.51 95.75
  Q 252.42 100.18 252.59 117.74
  Q 252.62 121.13 258.13 124.26"
/>
<path stroke="#ff80ff" vector-effect="non-scaling-stroke" d="
  M 289.03 88.72
  Q 278.35 88.85 267.70 88.81
  C 262.73 88.80 259.03 88.33 256.62 92.08
  Q 255.21 94.27 255.23 99.66
  Q 255.27 108.40 255.27 117.11
  C 255.27 120.19 256.53 121.72 258.13 124.26"
/>
<path stroke="#80ffff" vector-effect="non-scaling-stroke" d="
  M 291.53 88.84
  L 291.65 96.15"
/>
<path stroke="#80ffff" vector-effect="non-scaling-stroke" d="
  M 265.27 96.20
  Q 264.07 95.91 263.07 96.10
  A 0.64 0.64 0.0 0 0 262.55 96.73
  L 262.53 102.78
  Q 262.53 103.26 263.00 103.23
  L 265.28 103.10"
/>
<path stroke="#ff80ff" vector-effect="non-scaling-stroke" d="
  M 265.28 103.10
  L 289.00 103.08"
/>
<path stroke="#80ffff" vector-effect="non-scaling-stroke" d="
  M 291.51 103.28
  L 291.44 110.74"
/>
<path stroke="#80ffff" vector-effect="non-scaling-stroke" d="
  M 265.28 110.75
  L 263.20 110.57
  Q 262.55 110.51 262.55 111.16
  L 262.52 117.02
  Q 262.52 117.55 263.04 117.66
  Q 264.22 117.93 265.51 117.54"
/>
<path stroke="#ff80ff" vector-effect="non-scaling-stroke" d="
  M 265.51 117.54
  L 289.81 117.40"
/>
<path stroke="#80ffff" vector-effect="non-scaling-stroke" d="
  M 291.41 117.59
  L 291.68 124.79"
/>
<path stroke="#8080ff" vector-effect="non-scaling-stroke" d="
  M 265.28 102.15
  Q 265.49 102.36 265.28 103.10"
/>
<path stroke="#8080ff" vector-effect="non-scaling-stroke" d="
  M 265.36 117.03
  Q 265.78 117.12 265.51 117.54"
/>
<path stroke="#808080" vector-effect="non-scaling-stroke" d="
  M 302.23 124.45
  Q 304.96 125.50 309.69 124.85"
/>
<path stroke="#008080" vector-effect="non-scaling-stroke" d="
  M 309.69 124.85
  Q 310.91 125.16 311.78 124.94
  Q 312.29 124.81 312.30 124.28
  L 312.39 110.50"
/>
<path stroke="#800080" vector-effect="non-scaling-stroke" d="
  M 312.39 110.50
  Q 319.07 118.84 326.83 124.20"
/>
<path stroke="#808080" vector-effect="non-scaling-stroke" d="
  M 326.83 124.20
  Q 332.02 125.60 338.63 124.84"
/>
<path stroke="#008080" vector-effect="non-scaling-stroke" d="
  M 338.63 124.84
  L 340.76 124.97
  Q 341.24 125.00 341.24 124.52
  L 341.24 118.27
  Q 341.25 117.81 340.78 117.78
  L 338.38 117.61"
/>
<path stroke="#808080" vector-effect="non-scaling-stroke" d="
  M 338.38 117.61
  L 336.47 117.68"
/>
<path stroke="#800080" vector-effect="non-scaling-stroke" d="
  M 336.47 117.68
  Q 335.10 116.29 333.67 116.99"
/>
<path stroke="#008080" vector-effect="non-scaling-stroke" d="
  M 333.67 116.99
  L 327.31 110.76"
/>
<path stroke="#808080" vector-effect="non-scaling-stroke" d="
  M 327.31 110.76
  L 333.33 110.58"
/>
<path stroke="#008080" vector-effect="non-scaling-stroke" d="
  M 333.33 110.58
  C 341.15 110.44 341.61 103.97 341.27 97.62
  C 340.99 92.46 339.08 88.91 333.59 88.94"
/>
<path stroke="#808080" vector-effect="non-scaling-stroke" d="
  M 333.59 88.94
  L 330.92 88.37"
/>
<path stroke="#800080" vector-effect="non-scaling-stroke" d="
  M 330.92 88.37
  Q 315.29 87.37 299.94 87.90
  Q 299.54 87.91 299.54 88.31
  L 299.54 123.23
  Q 299.54 123.80 300.09 123.93
  L 302.23 124.45"
/>
<path stroke="#ff80ff" vector-effect="non-scaling-stroke" d="
  M 330.92 88.37
  L 302.91 88.89
  Q 302.29 88.90 302.29 89.52
  L 302.23 124.45"
/>
<path stroke="#80ffff" vector-effect="non-scaling-stroke" d="
  M 333.59 88.94
  C 336.89 90.97 338.44 92.94 338.50 97.07
  C 338.58 103.24 339.43 107.03 333.33 110.58"
/>
<path stroke="#80ffff" vector-effect="non-scaling-stroke" d="
  M 327.31 110.76
  Q 326.31 110.29 324.81 110.61
  Q 324.29 110.72 324.65 111.12
  C 327.65 114.37 330.87 118.65 334.03 117.64"
/>
<path stroke="#ff80ff" vector-effect="non-scaling-stroke" d="
  M 334.03 117.64
  L 336.47 117.68"
/>
<path stroke="#80ffff" vector-effect="non-scaling-stroke" d="
  M 338.38 117.61
  L 338.63 124.84"
/>
<path stroke="#ff80ff" vector-effect="non-scaling-stroke" d="
  M 326.83 124.20
  L 314.15 111.08
  Q 313.81 110.73 313.33 110.79
  L 312.50 110.90"
/>
<path stroke="#80ffff" vector-effect="non-scaling-stroke" d="
  M 312.50 110.90
  Q 311.28 110.46 310.17 110.59
  Q 309.62 110.65 309.63 111.20
  L 309.69 124.85"
/>
<path stroke="#8080ff" vector-effect="non-scaling-stroke" d="
  M 312.50 110.90
  Q 312.45 110.70 312.39 110.50"
/>
<path stroke="#8080ff" vector-effect="non-scaling-stroke" d="
  M 333.67 116.99
  Q 333.76 117.56 334.03 117.64"
/>
<path stroke="#808080" vector-effect="non-scaling-stroke" d="
  M 349.20 95.04
  Q 349.13 96.14 349.99 96.15
  Q 359.57 96.20 369.25 96.22"
/>
<path stroke="#800080" vector-effect="non-scaling-stroke" d="
  M 369.25 96.22
  Q 358.57 106.81 348.01 117.25
  C 345.83 119.40 346.35 124.22 350.02 123.77"
/>
<path stroke="#808080" vector-effect="non-scaling-stroke" d="
  M 350.02 123.77
  Q 351.43 125.00 353.75 125.00
  Q 369.87 125.01 385.66 124.98"
/>
<path stroke="#008080" vector-effect="non-scaling-stroke" d="
  M 385.66 124.98
  L 387.76 124.98
  Q 388.24 124.98 388.24 124.50
  L 388.24 118.27
  Q 388.24 117.81 387.79 117.78
  L 385.40 117.62"
/>
<path stroke="#808080" vector-effect="non-scaling-stroke" d="
  M 385.40 117.62
  L 383.45 117.63"
/>
<path stroke="#800080" vector-effect="non-scaling-stroke" d="
  M 383.45 117.63
  L 382.33 116.90
  A 1.48 1.45 -28.5 0 0 381.49 116.66
  L 365.54 116.71"
/>
<path stroke="#008080" vector-effect="non-scaling-stroke" d="
  M 365.54 116.71
  Q 375.37 106.78 384.93 97.28
  Q 387.38 94.85 387.94 93.28
  Q 389.36 89.35 383.18 88.75"
/>
<path stroke="#808080" vector-effect="non-scaling-stroke" d="
  M 383.18 88.75
  Q 382.05 89.04 381.08 88.37"
/>
<path stroke="#800080" vector-effect="non-scaling-stroke" d="
  M 381.08 88.37
  Q 364.01 87.35 347.05 87.91
  Q 346.53 87.93 346.53 88.45
  L 346.53 94.54
  Q 346.53 95.08 347.07 95.07
  L 349.20 95.04"
/>
<path stroke="#ff80ff" vector-effect="non-scaling-stroke" d="
  M 381.08 88.37
  L 349.99 88.80
  A 0.67 0.67 0.0 0 0 349.32 89.46
  L 349.20 95.04"
/>
<path stroke="#80ffff" vector-effect="non-scaling-stroke" d="
  M 383.18 88.75
  Q 387.32 92.21 383.78 95.77
  Q 373.09 106.48 362.32 117.14
  Q 361.90 117.55 362.48 117.67
  Q 363.76 117.93 365.21 117.46"
/>
<path stroke="#ff80ff" vector-effect="non-scaling-stroke" d="
  M 365.21 117.46
  L 383.45 117.63"
/>
<path stroke="#80ffff" vector-effect="non-scaling-stroke" d="
  M 385.40 117.62
  L 385.66 124.98"
/>
<path stroke="#ff80ff" vector-effect="non-scaling-stroke" d="
  M 350.02 123.77
  Q 348.32 120.83 349.95 119.19
  Q 361.17 107.94 372.44 96.70
  Q 372.95 96.19 372.23 96.20
  L 369.25 96.22"
/>
<path stroke="#8080ff" vector-effect="non-scaling-stroke" d="
  M 365.54 116.71
  Q 365.42 116.73 365.21 117.46"
/>
<path stroke="#802615" vector-effect="non-scaling-stroke" d="
  M 102.91 184.06
  L 44.81 184.97
  A 0.39 0.39 0.0 0 0 44.58 185.67
  L 187.30 294.42
  A 2.11 2.08 14.1 0 1 188.09 295.72
  L 218.14 472.52
  A 0.38 0.38 0.0 0 0 218.85 472.65
  L 246.82 422.54"
/>
<path stroke="#808080" vector-effect="non-scaling-stroke" d="
  M 246.82 422.54
  Q 249.29 436.67 251.50 449.90
  C 252.90 458.26 261.97 458.40 265.68 451.73
  Q 346.36 306.78 426.90 161.74
  Q 428.88 158.17 428.78 155.79
  C 428.56 151.14 424.92 148.64 420.32 148.70
  Q 253.39 150.90 86.45 153.08
  C 80.27 153.17 75.25 156.30 77.46 163.26
  Q 78.04 165.10 79.95 166.53
  Q 91.11 174.92 102.91 184.06"
/>
<path stroke="#ffa694" vector-effect="non-scaling-stroke" d="
  M 246.82 422.54
  L 221.81 275.11
  A 1.53 1.48 14.5 0 0 221.24 274.18
  L 102.91 184.06"
/>
<path stroke="#ff80ff" vector-effect="non-scaling-stroke" d="
  M 218.55 103.15
  L 237.01 103.15
  Q 237.46 103.15 237.46 102.71
  L 237.45 96.71
  Q 237.44 96.23 236.96 96.23
  L 234.99 96.25"
/>
<path stroke="#808080" vector-effect="non-scaling-stroke" d="
  M 234.99 96.25
  L 218.55 96.24"
/>
<path stroke="#80ffff" vector-effect="non-scaling-stroke" d="
  M 218.55 96.24
  L 216.39 96.11
  A 0.56 0.56 0.0 0 0 215.79 96.67
  L 215.78 102.78
  Q 215.78 103.24 216.24 103.23
  L 218.55 103.15"
/>
<path stroke="#008080" vector-effect="non-scaling-stroke" d="
  M 218.55 96.24
  L 218.64 102.14"
/>
<path stroke="#8080ff" vector-effect="non-scaling-stroke" d="
  M 218.64 102.14
  L 218.55 103.15"
/>
<path stroke="#800080" vector-effect="non-scaling-stroke" d="
  M 234.99 96.25
  L 234.70 101.48
  Q 234.66 102.11 234.03 102.11
  L 218.64 102.14"
/>
<path stroke="#ff80ff" vector-effect="non-scaling-stroke" d="
  M 218.30 117.59
  L 237.00 117.47
  Q 237.46 117.46 237.46 117.00
  L 237.46 111.24
  Q 237.46 110.77 236.99 110.77
  L 234.74 110.78"
/>
<path stroke="#808080" vector-effect="non-scaling-stroke" d="
  M 234.74 110.78
  L 218.38 110.77"
/>
<path stroke="#80ffff" vector-effect="non-scaling-stroke" d="
  M 218.38 110.77
  Q 217.34 110.46 216.45 110.58
  Q 215.99 110.64 215.93 111.10
  Q 214.85 119.30 218.30 117.59"
/>
<path stroke="#008080" vector-effect="non-scaling-stroke" d="
  M 218.38 110.77
  Q 218.69 112.96 218.48 115.24
  Q 218.35 116.65 219.21 116.79"
/>
<path stroke="#8080ff" vector-effect="non-scaling-stroke" d="
  M 219.21 116.79
  Q 219.11 117.20 218.30 117.59"
/>
<path stroke="#800080" vector-effect="non-scaling-stroke" d="
  M 234.74 110.78
  L 234.67 116.22
  Q 234.66 116.83 234.05 116.83
  L 219.21 116.79"
/>
<path stroke="#ff80ff" vector-effect="non-scaling-stroke" d="
  M 312.28 103.09
  L 330.61 103.10
  Q 331.23 103.10 331.23 102.49
  L 331.23 96.73
  Q 331.23 96.22 330.72 96.22
  L 328.58 96.26"
/>
<path stroke="#808080" vector-effect="non-scaling-stroke" d="
  M 328.58 96.26
  L 312.25 96.25"
/>
<path stroke="#80ffff" vector-effect="non-scaling-stroke" d="
  M 312.25 96.25
  L 310.18 96.09
  A 0.58 0.57 1.9 0 0 309.56 96.66
  L 309.54 102.79
  Q 309.53 103.25 309.99 103.22
  L 312.28 103.09"
/>
<path stroke="#008080" vector-effect="non-scaling-stroke" d="
  M 312.25 96.25
  L 312.33 102.27"
/>
<path stroke="#8080ff" vector-effect="non-scaling-stroke" d="
  M 312.33 102.27
  Q 312.43 102.89 312.28 103.09"
/>
<path stroke="#800080" vector-effect="non-scaling-stroke" d="
  M 328.58 96.26
  L 328.40 101.60
  Q 328.38 102.20 327.77 102.21
  L 312.33 102.27"
/>
<path stroke="#ffa694" vector-effect="non-scaling-stroke" d="
  M 127.29 183.96
  Q 179.04 223.53 230.64 262.72
  C 233.68 265.03 235.44 266.96 236.04 270.49
  Q 247.06 335.95 258.31 401.61"
/>
<path stroke="#808080" vector-effect="non-scaling-stroke" d="
  M 258.31 401.61
  L 262.54 426.10
  Q 262.68 426.88 263.06 426.18
  L 268.97 415.28"
/>
<path stroke="#ff80ff" vector-effect="non-scaling-stroke" d="
  M 268.97 415.28
  Q 270.25 414.47 270.70 412.50"
/>
<path stroke="#808080" vector-effect="non-scaling-stroke" d="
  M 270.70 412.50
  L 272.52 409.47"
/>
<path stroke="#ff80ff" vector-effect="non-scaling-stroke" d="
  M 272.52 409.47
  L 274.69 405.49"
/>
<path stroke="#808080" vector-effect="non-scaling-stroke" d="
  M 274.69 405.49
  L 315.62 331.59"
/>
<path stroke="#ff80ff" vector-effect="non-scaling-stroke" d="
  M 315.62 331.59
  Q 316.42 330.89 316.78 329.52"
/>
<path stroke="#808080" vector-effect="non-scaling-stroke" d="
  M 316.78 329.52
  L 318.28 326.93"
/>
<path stroke="#ff80ff" vector-effect="non-scaling-stroke" d="
  M 318.28 326.93
  Q 319.20 326.29 319.13 325.27"
/>
<path stroke="#808080" vector-effect="non-scaling-stroke" d="
  M 319.13 325.27
  L 408.43 164.46
  Q 408.86 163.69 407.98 163.70
  L 106.77 167.66
  Q 105.86 167.68 106.58 168.23
  L 127.29 183.96"
/>
<path stroke="#800080" vector-effect="non-scaling-stroke" d="
  M 319.13 325.27
  Q 318.19 325.76 318.28 326.93"
/>
<path stroke="#800080" vector-effect="non-scaling-stroke" d="
  M 316.78 329.52
  Q 315.79 330.32 315.62 331.59"
/>
<path stroke="#800080" vector-effect="non-scaling-stroke" d="
  M 274.69 405.49
  Q 273.04 407.24 272.52 409.47"
/>
<path stroke="#800080" vector-effect="non-scaling-stroke" d="
  M 270.70 412.50
  Q 269.56 413.69 268.97 415.28"
/>
<path stroke="#802615" vector-effect="non-scaling-stroke" d="
  M 258.31 401.61
  L 380.71 181.22
  A 0.40 0.40 0.0 0 0 380.36 180.63
  L 127.29 183.96"
/>
</g>
<path fill="#000000" d="
  M 0.00 0.00
  L 500.00 0.00
  L 500.00 500.00
  L 0.00 500.00
  L 0.00 0.00
  Z
  M 127.76 123.18
  Q 130.44 125.28 135.83 125.07
  Q 144.38 120.56 151.62 113.33
  C 152.92 112.03 153.52 110.76 153.52 109.00
  Q 153.52 99.17 153.47 89.31
  Q 153.47 88.80 152.96 88.80
  L 150.74 88.81
  L 148.30 88.59
  Q 145.10 87.16 141.20 87.95
  Q 140.75 88.04 140.75 88.51
  L 140.75 106.73
  Q 140.75 107.30 140.32 107.68
  L 132.19 114.72
  L 125.02 108.60
  Q 124.55 108.20 124.55 107.59
  L 124.55 89.27
  Q 124.55 88.80 124.08 88.80
  L 121.78 88.77
  Q 119.63 88.89 118.90 88.39
  Q 115.80 87.31 112.27 87.90
  Q 111.79 87.98 111.79 88.47
  Q 111.76 98.61 111.98 108.75
  Q 112.02 110.84 113.97 112.54
  Q 122.85 120.28 125.80 122.69
  Q 126.44 123.22 127.76 123.18
  Z
  M 161.35 95.18
  L 161.43 95.51
  Q 161.56 95.99 162.05 96.00
  L 173.31 96.23
  L 173.25 116.39
  Q 173.25 116.85 172.78 116.85
  L 159.28 116.73
  Q 158.79 116.72 158.79 117.22
  L 158.79 123.31
  A 0.63 0.62 -87.5 0 0 159.36 123.94
  L 161.23 124.13
  Q 161.33 124.45 161.69 124.72
  Q 161.95 124.93 162.37 124.93
  Q 180.23 125.08 197.93 124.96
  L 200.03 124.97
  Q 200.50 124.97 200.50 124.50
  L 200.50 118.27
  Q 200.50 117.80 200.03 117.77
  L 197.77 117.61
  L 195.15 117.44
  Q 191.18 116.04 186.02 117.14
  L 186.00 96.19
  L 197.74 96.13
  L 199.96 96.06
  Q 200.50 96.04 200.50 95.51
  L 200.50 89.26
  Q 200.50 88.80 200.03 88.80
  L 197.75 88.82
  L 195.21 88.74
  L 194.60 88.14
  A 1.26 1.24 -23.0 0 0 193.74 87.80
  L 159.25 87.78
  Q 158.79 87.78 158.79 88.25
  L 158.79 94.51
  Q 158.79 95.00 159.28 95.04
  L 161.35 95.18
  Z
  M 208.04 124.04
  L 208.49 124.52
  Q 208.84 124.88 209.34 124.88
  L 240.51 124.88
  C 245.97 124.38 247.35 120.86 247.52 115.78
  C 247.63 112.32 248.15 108.97 245.39 107.24
  Q 244.83 106.90 245.39 106.55
  C 246.57 105.80 247.20 105.20 247.35 103.70
  C 247.95 97.96 248.31 88.32 239.45 88.96
  L 237.14 88.32
  Q 221.59 87.35 206.18 87.91
  Q 205.80 87.92 205.80 88.31
  L 205.80 123.33
  Q 205.80 123.91 206.38 123.95
  L 208.04 124.04
  Z
  M 258.13 124.26
  Q 274.29 125.68 291.68 124.79
  Q 292.77 125.11 293.81 124.97
  Q 294.24 124.91 294.24 124.47
  L 294.24 118.27
  Q 294.24 117.80 293.78 117.77
  L 291.41 117.59
  Q 289.91 117.67 289.81 117.40
  Q 277.76 116.11 265.36 117.03
  L 265.28 110.75
  L 291.44 110.74
  L 293.70 110.59
  Q 294.24 110.55 294.24 110.01
  L 294.25 103.75
  Q 294.25 103.28 293.77 103.28
  L 291.51 103.28
  L 289.00 103.08
  Q 288.26 102.13 286.74 102.12
  Q 276.05 102.02 265.28 102.15
  L 265.27 96.20
  L 291.65 96.15
  L 293.70 96.07
  Q 294.24 96.05 294.24 95.51
  L 294.24 89.25
  Q 294.24 88.79 293.78 88.80
  L 291.53 88.84
  L 289.03 88.72
  L 288.42 88.14
  A 1.19 1.16 -22.5 0 0 287.60 87.81
  Q 275.46 87.79 263.35 87.78
  C 257.34 87.77 252.65 89.00 252.51 95.75
  Q 252.42 100.18 252.59 117.74
  Q 252.62 121.13 258.13 124.26
  Z
  M 302.23 124.45
  Q 304.96 125.50 309.69 124.85
  Q 310.91 125.16 311.78 124.94
  Q 312.29 124.81 312.30 124.28
  L 312.39 110.50
  Q 319.07 118.84 326.83 124.20
  Q 332.02 125.60 338.63 124.84
  L 340.76 124.97
  Q 341.24 125.00 341.24 124.52
  L 341.24 118.27
  Q 341.25 117.81 340.78 117.78
  L 338.38 117.61
  L 336.47 117.68
  Q 335.10 116.29 333.67 116.99
  L 327.31 110.76
  L 333.33 110.58
  C 341.15 110.44 341.61 103.97 341.27 97.62
  C 340.99 92.46 339.08 88.91 333.59 88.94
  L 330.92 88.37
  Q 315.29 87.37 299.94 87.90
  Q 299.54 87.91 299.54 88.31
  L 299.54 123.23
  Q 299.54 123.80 300.09 123.93
  L 302.23 124.45
  Z
  M 349.20 95.04
  Q 349.13 96.14 349.99 96.15
  Q 359.57 96.20 369.25 96.22
  Q 358.57 106.81 348.01 117.25
  C 345.83 119.40 346.35 124.22 350.02 123.77
  Q 351.43 125.00 353.75 125.00
  Q 369.87 125.01 385.66 124.98
  L 387.76 124.98
  Q 388.24 124.98 388.24 124.50
  L 388.24 118.27
  Q 388.24 117.81 387.79 117.78
  L 385.40 117.62
  L 383.45 117.63
  L 382.33 116.90
  A 1.48 1.45 -28.5 0 0 381.49 116.66
  L 365.54 116.71
  Q 375.37 106.78 384.93 97.28
  Q 387.38 94.85 387.94 93.28
  Q 389.36 89.35 383.18 88.75
  Q 382.05 89.04 381.08 88.37
  Q 364.01 87.35 347.05 87.91
  Q 346.53 87.93 346.53 88.45
  L 346.53 94.54
  Q 346.53 95.08 347.07 95.07
  L 349.20 95.04
  Z
  M 102.91 184.06
  L 44.81 184.97
  A 0.39 0.39 0.0 0 0 44.58 185.67
  L 187.30 294.42
  A 2.11 2.08 14.1 0 1 188.09 295.72
  L 218.14 472.52
  A 0.38 0.38 0.0 0 0 218.85 472.65
  L 246.82 422.54
  Q 249.29 436.67 251.50 449.90
  C 252.90 458.26 261.97 458.40 265.68 451.73
  Q 346.36 306.78 426.90 161.74
  Q 428.88 158.17 428.78 155.79
  C 428.56 151.14 424.92 148.64 420.32 148.70
  Q 253.39 150.90 86.45 153.08
  C 80.27 153.17 75.25 156.30 77.46 163.26
  Q 78.04 165.10 79.95 166.53
  Q 91.11 174.92 102.91 184.06
  Z"
/>
<path fill="#ff00ff" d="
  M 118.90 88.39
  L 115.03 88.91
  Q 114.50 88.98 114.50 89.52
  L 114.50 109.98
  A 3.58 3.58 0.0 0 0 115.73 112.68
  L 127.76 123.18
  Q 126.44 123.22 125.80 122.69
  Q 122.85 120.28 113.97 112.54
  Q 112.02 110.84 111.98 108.75
  Q 111.76 98.61 111.79 88.47
  Q 111.79 87.98 112.27 87.90
  Q 115.80 87.31 118.90 88.39
  Z"
/>
<path fill="#ff00ff" d="
  M 148.30 88.59
  L 143.93 88.95
  Q 143.42 88.99 143.43 89.50
  L 143.47 107.72
  Q 143.47 108.19 143.11 108.50
  L 133.61 116.68
  Q 133.46 115.82 132.19 114.72
  L 140.32 107.68
  Q 140.75 107.30 140.75 106.73
  L 140.75 88.51
  Q 140.75 88.04 141.20 87.95
  Q 145.10 87.16 148.30 88.59
  Z"
/>
<path fill="#ff00ff" d="
  M 195.21 88.74
  L 162.17 88.80
  A 0.74 0.74 0.0 0 0 161.43 89.52
  L 161.35 95.18
  L 159.28 95.04
  Q 158.79 95.00 158.79 94.51
  L 158.79 88.25
  Q 158.79 87.78 159.25 87.78
  L 193.74 87.80
  A 1.26 1.24 -23.0 0 1 194.60 88.14
  L 195.21 88.74
  Z"
/>
<path fill="#ff00ff" d="
  M 237.14 88.32
  L 209.30 88.72
  A 0.82 0.82 0.0 0 0 208.49 89.54
  Q 208.52 106.41 208.49 123.56
  Q 208.49 123.77 208.41 123.90
  Q 208.23 124.18 208.04 124.04
  L 206.38 123.95
  Q 205.80 123.91 205.80 123.33
  L 205.80 88.31
  Q 205.80 87.92 206.18 87.91
  Q 221.59 87.35 237.14 88.32
  Z"
/>
<path fill="#ff00ff" d="
  M 289.03 88.72
  Q 278.35 88.85 267.70 88.81
  C 262.73 88.80 259.03 88.33 256.62 92.08
  Q 255.21 94.27 255.23 99.66
  Q 255.27 108.40 255.27 117.11
  C 255.27 120.19 256.53 121.72 258.13 124.26
  Q 252.62 121.13 252.59 117.74
  Q 252.42 100.18 252.51 95.75
  C 252.65 89.00 257.34 87.77 263.35 87.78
  Q 275.46 87.79 287.60 87.81
  A 1.19 1.16 -22.5 0 1 288.42 88.14
  L 289.03 88.72
  Z"
/>
<path fill="#ff00ff" d="
  M 330.92 88.37
  L 302.91 88.89
  Q 302.29 88.90 302.29 89.52
  L 302.23 124.45
  L 300.09 123.93
  Q 299.54 123.80 299.54 123.23
  L 299.54 88.31
  Q 299.54 87.91 299.94 87.90
  Q 315.29 87.37 330.92 88.37
  Z"
/>
<path fill="#ff00ff" d="
  M 381.08 88.37
  L 349.99 88.80
  A 0.67 0.67 0.0 0 0 349.32 89.46
  L 349.20 95.04
  L 347.07 95.07
  Q 346.53 95.08 346.53 94.54
  L 346.53 88.45
  Q 346.53 87.93 347.05 87.91
  Q 364.01 87.35 381.08 88.37
  Z"
/>
<path fill="#ffffff" d="
  M 118.90 88.39
  Q 119.63 88.89 121.78 88.77
  L 121.77 107.69
  A 1.17 1.17 0.0 0 0 122.18 108.58
  L 132.29 117.28
  Q 132.70 117.63 133.07 117.25
  L 133.61 116.68
  L 143.11 108.50
  Q 143.47 108.19 143.47 107.72
  L 143.43 89.50
  Q 143.42 88.99 143.93 88.95
  L 148.30 88.59
  L 150.74 88.81
  Q 150.75 99.29 150.56 109.75
  Q 150.51 112.04 148.71 113.46
  Q 142.00 118.77 135.83 125.07
  Q 130.44 125.28 127.76 123.18
  L 115.73 112.68
  A 3.58 3.58 0.0 0 1 114.50 109.98
  L 114.50 89.52
  Q 114.50 88.98 115.03 88.91
  L 118.90 88.39
  Z"
/>
<path fill="#ffffff" d="
  M 237.14 88.32
  L 239.45 88.96
  C 246.14 92.13 244.77 97.47 244.74 103.51
  Q 244.73 105.73 242.26 106.63
  Q 241.65 106.86 242.25 107.13
  C 245.98 108.79 244.78 115.40 244.75 118.80
  Q 244.73 121.24 240.51 124.88
  L 209.34 124.88
  Q 208.84 124.88 208.49 124.52
  L 208.04 124.04
  Q 208.23 124.18 208.41 123.90
  Q 208.49 123.77 208.49 123.56
  Q 208.52 106.41 208.49 89.54
  A 0.82 0.82 0.0 0 1 209.30 88.72
  L 237.14 88.32
  Z
  M 218.55 103.15
  L 237.01 103.15
  Q 237.46 103.15 237.46 102.71
  L 237.45 96.71
  Q 237.44 96.23 236.96 96.23
  L 234.99 96.25
  L 218.55 96.24
  L 216.39 96.11
  A 0.56 0.56 0.0 0 0 215.79 96.67
  L 215.78 102.78
  Q 215.78 103.24 216.24 103.23
  L 218.55 103.15
  Z
  M 218.30 117.59
  L 237.00 117.47
  Q 237.46 117.46 237.46 117.00
  L 237.46 111.24
  Q 237.46 110.77 236.99 110.77
  L 234.74 110.78
  L 218.38 110.77
  Q 217.34 110.46 216.45 110.58
  Q 215.99 110.64 215.93 111.10
  Q 214.85 119.30 218.30 117.59
  Z"
/>
<path fill="#ffffff" d="
  M 330.92 88.37
  L 333.59 88.94
  C 336.89 90.97 338.44 92.94 338.50 97.07
  C 338.58 103.24 339.43 107.03 333.33 110.58
  L 327.31 110.76
  Q 326.31 110.29 324.81 110.61
  Q 324.29 110.72 324.65 111.12
  C 327.65 114.37 330.87 118.65 334.03 117.64
  L 336.47 117.68
  L 338.38 117.61
  L 338.63 124.84
  Q 332.02 125.60 326.83 124.20
  L 314.15 111.08
  Q 313.81 110.73 313.33 110.79
  L 312.50 110.90
  Q 311.28 110.46 310.17 110.59
  Q 309.62 110.65 309.63 111.20
  L 309.69 124.85
  Q 304.96 125.50 302.23 124.45
  L 302.29 89.52
  Q 302.29 88.90 302.91 88.89
  L 330.92 88.37
  Z
  M 312.28 103.09
  L 330.61 103.10
  Q 331.23 103.10 331.23 102.49
  L 331.23 96.73
  Q 331.23 96.22 330.72 96.22
  L 328.58 96.26
  L 312.25 96.25
  L 310.18 96.09
  A 0.58 0.57 1.9 0 0 309.56 96.66
  L 309.54 102.79
  Q 309.53 103.25 309.99 103.22
  L 312.28 103.09
  Z"
/>
<path fill="#ffffff" d="
  M 381.08 88.37
  Q 382.05 89.04 383.18 88.75
  Q 387.32 92.21 383.78 95.77
  Q 373.09 106.48 362.32 117.14
  Q 361.90 117.55 362.48 117.67
  Q 363.76 117.93 365.21 117.46
  L 383.45 117.63
  L 385.40 117.62
  L 385.66 124.98
  Q 369.87 125.01 353.75 125.00
  Q 351.43 125.00 350.02 123.77
  Q 348.32 120.83 349.95 119.19
  Q 361.17 107.94 372.44 96.70
  Q 372.95 96.19 372.23 96.20
  L 369.25 96.22
  Q 359.57 96.20 349.99 96.15
  Q 349.13 96.14 349.20 95.04
  L 349.32 89.46
  A 0.67 0.67 0.0 0 1 349.99 88.80
  L 381.08 88.37
  Z"
/>
<path fill="#00ffff" d="
  M 121.78 88.77
  L 124.08 88.80
  Q 124.55 88.80 124.55 89.27
  L 124.55 107.59
  Q 124.55 108.20 125.02 108.60
  L 132.19 114.72
  Q 133.46 115.82 133.61 116.68
  L 133.07 117.25
  Q 132.70 117.63 132.29 117.28
  L 122.18 108.58
  A 1.17 1.17 0.0 0 1 121.77 107.69
  L 121.78 88.77
  Z"
/>
<path fill="#00ffff" d="
  M 150.74 88.81
  L 152.96 88.80
  Q 153.47 88.80 153.47 89.31
  Q 153.52 99.17 153.52 109.00
  C 153.52 110.76 152.92 112.03 151.62 113.33
  Q 144.38 120.56 135.83 125.07
  Q 142.00 118.77 148.71 113.46
  Q 150.51 112.04 150.56 109.75
  Q 150.75 99.29 150.74 88.81
  Z"
/>
<path fill="#ffffff" d="
  M 195.21 88.74
  L 197.75 88.82
  L 197.74 96.13
  L 186.00 96.19
  Q 184.79 95.89 183.84 96.07
  A 0.67 0.66 -5.2 0 0 183.29 96.72
  L 183.28 117.00
  Q 183.28 117.45 183.70 117.62
  Q 184.68 118.04 185.56 117.66
  L 195.15 117.44
  L 197.77 117.61
  L 197.93 124.96
  Q 180.23 125.08 162.37 124.93
  Q 161.95 124.93 161.69 124.72
  Q 161.33 124.45 161.23 124.13
  L 161.46 118.38
  A 0.63 0.62 -0.0 0 1 162.07 117.78
  L 175.68 117.52
  A 0.32 0.32 0.0 0 0 176.00 117.20
  L 176.00 96.71
  Q 176.00 96.14 175.43 96.16
  L 173.31 96.23
  L 162.05 96.00
  Q 161.56 95.99 161.43 95.51
  L 161.35 95.18
  L 161.43 89.52
  A 0.74 0.74 0.0 0 1 162.17 88.80
  L 195.21 88.74
  Z"
/>
<path fill="#00ffff" d="
  M 197.75 88.82
  L 200.03 88.80
  Q 200.50 88.80 200.50 89.26
  L 200.50 95.51
  Q 200.50 96.04 199.96 96.06
  L 197.74 96.13
  L 197.75 88.82
  Z"
/>
<path fill="#00ffff" d="
  M 240.51 124.88
  Q 244.73 121.24 244.75 118.80
  C 244.78 115.40 245.98 108.79 242.25 107.13
  Q 241.65 106.86 242.26 106.63
  Q 244.73 105.73 244.74 103.51
  C 244.77 97.47 246.14 92.13 239.45 88.96
  C 248.31 88.32 247.95 97.96 247.35 103.70
  C 247.20 105.20 246.57 105.80 245.39 106.55
  Q 244.83 106.90 245.39 107.24
  C 248.15 108.97 247.63 112.32 247.52 115.78
  C 247.35 120.86 245.97 124.38 240.51 124.88
  Z"
/>
<path fill="#ffffff" d="
  M 289.03 88.72
  L 291.53 88.84
  L 291.65 96.15
  L 265.27 96.20
  Q 264.07 95.91 263.07 96.10
  A 0.64 0.64 0.0 0 0 262.55 96.73
  L 262.53 102.78
  Q 262.53 103.26 263.00 103.23
  L 265.28 103.10
  L 289.00 103.08
  L 291.51 103.28
  L 291.44 110.74
  L 265.28 110.75
  L 263.20 110.57
  Q 262.55 110.51 262.55 111.16
  L 262.52 117.02
  Q 262.52 117.55 263.04 117.66
  Q 264.22 117.93 265.51 117.54
  L 289.81 117.40
  Q 289.91 117.67 291.41 117.59
  L 291.68 124.79
  Q 274.29 125.68 258.13 124.26
  C 256.53 121.72 255.27 120.19 255.27 117.11
  Q 255.27 108.40 255.23 99.66
  Q 255.21 94.27 256.62 92.08
  C 259.03 88.33 262.73 88.80 267.70 88.81
  Q 278.35 88.85 289.03 88.72
  Z"
/>
<path fill="#00ffff" d="
  M 291.53 88.84
  L 293.78 88.80
  Q 294.24 88.79 294.24 89.25
  L 294.24 95.51
  Q 294.24 96.05 293.70 96.07
  L 291.65 96.15
  L 291.53 88.84
  Z"
/>
<path fill="#00ffff" d="
  M 333.33 110.58
  C 339.43 107.03 338.58 103.24 338.50 97.07
  C 338.44 92.94 336.89 90.97 333.59 88.94
  C 339.08 88.91 340.99 92.46 341.27 97.62
  C 341.61 103.97 341.15 110.44 333.33 110.58
  Z"
/>
<path fill="#00ffff" d="
  M 365.54 116.71
  Q 365.42 116.73 365.21 117.46
  Q 363.76 117.93 362.48 117.67
  Q 361.90 117.55 362.32 117.14
  Q 373.09 106.48 383.78 95.77
  Q 387.32 92.21 383.18 88.75
  Q 389.36 89.35 387.94 93.28
  Q 387.38 94.85 384.93 97.28
  Q 375.37 106.78 365.54 116.71
  Z"
/>
<path fill="#ff00ff" d="
  M 161.23 124.13
  L 159.36 123.94
  A 0.63 0.62 -87.5 0 1 158.79 123.31
  L 158.79 117.22
  Q 158.79 116.72 159.28 116.73
  L 172.78 116.85
  Q 173.25 116.85 173.25 116.39
  L 173.31 96.23
  L 175.43 96.16
  Q 176.00 96.14 176.00 96.71
  L 176.00 117.20
  A 0.32 0.32 0.0 0 1 175.68 117.52
  L 162.07 117.78
  A 0.63 0.62 -0.0 0 0 161.46 118.38
  L 161.23 124.13
  Z"
/>
<path fill="#00ffff" d="
  M 186.00 96.19
  L 186.02 117.14
  Q 186.81 117.12 185.56 117.66
  Q 184.68 118.04 183.70 117.62
  Q 183.28 117.45 183.28 117.00
  L 183.29 96.72
  A 0.67 0.66 -5.2 0 1 183.84 96.07
  Q 184.79 95.89 186.00 96.19
  Z"
/>
<path fill="#00ffff" d="
  M 218.55 96.24
  L 218.64 102.14
  L 218.55 103.15
  L 216.24 103.23
  Q 215.78 103.24 215.78 102.78
  L 215.79 96.67
  A 0.56 0.56 0.0 0 1 216.39 96.11
  L 218.55 96.24
  Z"
/>
<path fill="#00ffff" d="
  M 265.27 96.20
  L 265.28 102.15
  Q 265.49 102.36 265.28 103.10
  L 263.00 103.23
  Q 262.53 103.26 262.53 102.78
  L 262.55 96.73
  A 0.64 0.64 0.0 0 1 263.07 96.10
  Q 264.07 95.91 265.27 96.20
  Z"
/>
<path fill="#00ffff" d="
  M 312.25 96.25
  L 312.33 102.27
  Q 312.43 102.89 312.28 103.09
  L 309.99 103.22
  Q 309.53 103.25 309.54 102.79
  L 309.56 96.66
  A 0.58 0.57 1.9 0 1 310.18 96.09
  L 312.25 96.25
  Z"
/>
<path fill="#ff00ff" d="
  M 350.02 123.77
  C 346.35 124.22 345.83 119.40 348.01 117.25
  Q 358.57 106.81 369.25 96.22
  L 372.23 96.20
  Q 372.95 96.19 372.44 96.70
  Q 361.17 107.94 349.95 119.19
  Q 348.32 120.83 350.02 123.77
  Z"
/>
<path fill="#000000" d="
  M 218.55 96.24
  L 234.99 96.25
  L 234.70 101.48
  Q 234.66 102.11 234.03 102.11
  L 218.64 102.14
  L 218.55 96.24
  Z"
/>
<path fill="#ff00ff" d="
  M 234.99 96.25
  L 236.96 96.23
  Q 237.44 96.23 237.45 96.71
  L 237.46 102.71
  Q 237.46 103.15 237.01 103.15
  L 218.55 103.15
  L 218.64 102.14
  L 234.03 102.11
  Q 234.66 102.11 234.70 101.48
  L 234.99 96.25
  Z"
/>
<path fill="#000000" d="
  M 312.25 96.25
  L 328.58 96.26
  L 328.40 101.60
  Q 328.38 102.20 327.77 102.21
  L 312.33 102.27
  L 312.25 96.25
  Z"
/>
<path fill="#ff00ff" d="
  M 328.58 96.26
  L 330.72 96.22
  Q 331.23 96.22 331.23 96.73
  L 331.23 102.49
  Q 331.23 103.10 330.61 103.10
  L 312.28 103.09
  Q 312.43 102.89 312.33 102.27
  L 327.77 102.21
  Q 328.38 102.20 328.40 101.60
  L 328.58 96.26
  Z"
/>
<path fill="#ff00ff" d="
  M 265.28 102.15
  Q 276.05 102.02 286.74 102.12
  Q 288.26 102.13 289.00 103.08
  L 265.28 103.10
  Q 265.49 102.36 265.28 102.15
  Z"
/>
<path fill="#00ffff" d="
  M 291.51 103.28
  L 293.77 103.28
  Q 294.25 103.28 294.25 103.75
  L 294.24 110.01
  Q 294.24 110.55 293.70 110.59
  L 291.44 110.74
  L 291.51 103.28
  Z"
/>
<path fill="#00ffff" d="
  M 218.38 110.77
  Q 218.69 112.96 218.48 115.24
  Q 218.35 116.65 219.21 116.79
  Q 219.11 117.20 218.30 117.59
  Q 214.85 119.30 215.93 111.10
  Q 215.99 110.64 216.45 110.58
  Q 217.34 110.46 218.38 110.77
  Z"
/>
<path fill="#00ffff" d="
  M 265.28 110.75
  L 265.36 117.03
  Q 265.78 117.12 265.51 117.54
  Q 264.22 117.93 263.04 117.66
  Q 262.52 117.55 262.52 117.02
  L 262.55 111.16
  Q 262.55 110.51 263.20 110.57
  L 265.28 110.75
  Z"
/>
<path fill="#00ffff" d="
  M 312.50 110.90
  Q 312.45 110.70 312.39 110.50
  L 312.30 124.28
  Q 312.29 124.81 311.78 124.94
  Q 310.91 125.16 309.69 124.85
  L 309.63 111.20
  Q 309.62 110.65 310.17 110.59
  Q 311.28 110.46 312.50 110.90
  Z"
/>
<path fill="#00ffff" d="
  M 327.31 110.76
  L 333.67 116.99
  Q 333.76 117.56 334.03 117.64
  C 330.87 118.65 327.65 114.37 324.65 111.12
  Q 324.29 110.72 324.81 110.61
  Q 326.31 110.29 327.31 110.76
  Z"
/>
<path fill="#000000" d="
  M 218.38 110.77
  L 234.74 110.78
  L 234.67 116.22
  Q 234.66 116.83 234.05 116.83
  L 219.21 116.79
  Q 218.35 116.65 218.48 115.24
  Q 218.69 112.96 218.38 110.77
  Z"
/>
<path fill="#ff00ff" d="
  M 234.74 110.78
  L 236.99 110.77
  Q 237.46 110.77 237.46 111.24
  L 237.46 117.00
  Q 237.46 117.46 237.00 117.47
  L 218.30 117.59
  Q 219.11 117.20 219.21 116.79
  L 234.05 116.83
  Q 234.66 116.83 234.67 116.22
  L 234.74 110.78
  Z"
/>
<path fill="#ff00ff" d="
  M 312.50 110.90
  L 313.33 110.79
  Q 313.81 110.73 314.15 111.08
  L 326.83 124.20
  Q 319.07 118.84 312.39 110.50
  Q 312.45 110.70 312.50 110.90
  Z"
/>
<path fill="#ff00ff" d="
  M 336.47 117.68
  L 334.03 117.64
  Q 333.76 117.56 333.67 116.99
  Q 335.10 116.29 336.47 117.68
  Z"
/>
<path fill="#ff00ff" d="
  M 365.54 116.71
  L 381.49 116.66
  A 1.48 1.45 -28.5 0 1 382.33 116.90
  L 383.45 117.63
  L 365.21 117.46
  Q 365.42 116.73 365.54 116.71
  Z"
/>
<path fill="#ff00ff" d="
  M 195.15 117.44
  L 185.56 117.66
  Q 186.81 117.12 186.02 117.14
  Q 191.18 116.04 195.15 117.44
  Z"
/>
<path fill="#ff00ff" d="
  M 289.81 117.40
  L 265.51 117.54
  Q 265.78 117.12 265.36 117.03
  Q 277.76 116.11 289.81 117.40
  Z"
/>
<path fill="#00ffff" d="
  M 197.77 117.61
  L 200.03 117.77
  Q 200.50 117.80 200.50 118.27
  L 200.50 124.50
  Q 200.50 124.97 200.03 124.97
  L 197.93 124.96
  L 197.77 117.61
  Z"
/>
<path fill="#00ffff" d="
  M 291.41 117.59
  L 293.78 117.77
  Q 294.24 117.80 294.24 118.27
  L 294.24 124.47
  Q 294.24 124.91 293.81 124.97
  Q 292.77 125.11 291.68 124.79
  L 291.41 117.59
  Z"
/>
<path fill="#00ffff" d="
  M 338.38 117.61
  L 340.78 117.78
  Q 341.25 117.81 341.24 118.27
  L 341.24 124.52
  Q 341.24 125.00 340.76 124.97
  L 338.63 124.84
  L 338.38 117.61
  Z"
/>
<path fill="#00ffff" d="
  M 385.40 117.62
  L 387.79 117.78
  Q 388.24 117.81 388.24 118.27
  L 388.24 124.50
  Q 388.24 124.98 387.76 124.98
  L 385.66 124.98
  L 385.40 117.62
  Z"
/>
<path fill="#ffffff" d="
  M 246.82 422.54
  L 221.81 275.11
  A 1.53 1.48 14.5 0 0 221.24 274.18
  L 102.91 184.06
  Q 91.11 174.92 79.95 166.53
  Q 78.04 165.10 77.46 163.26
  C 75.25 156.30 80.27 153.17 86.45 153.08
  Q 253.39 150.90 420.32 148.70
  C 424.92 148.64 428.56 151.14 428.78 155.79
  Q 428.88 158.17 426.90 161.74
  Q 346.36 306.78 265.68 451.73
  C 261.97 458.40 252.90 458.26 251.50 449.90
  Q 249.29 436.67 246.82 422.54
  Z
  M 127.29 183.96
  Q 179.04 223.53 230.64 262.72
  C 233.68 265.03 235.44 266.96 236.04 270.49
  Q 247.06 335.95 258.31 401.61
  L 262.54 426.10
  Q 262.68 426.88 263.06 426.18
  L 268.97 415.28
  Q 270.25 414.47 270.70 412.50
  L 272.52 409.47
  L 274.69 405.49
  L 315.62 331.59
  Q 316.42 330.89 316.78 329.52
  L 318.28 326.93
  Q 319.20 326.29 319.13 325.27
  L 408.43 164.46
  Q 408.86 163.69 407.98 163.70
  L 106.77 167.66
  Q 105.86 167.68 106.58 168.23
  L 127.29 183.96
  Z"
/>
<path fill="#000000" d="
  M 319.13 325.27
  Q 318.19 325.76 318.28 326.93
  L 316.78 329.52
  Q 315.79 330.32 315.62 331.59
  L 274.69 405.49
  Q 273.04 407.24 272.52 409.47
  L 270.70 412.50
  Q 269.56 413.69 268.97 415.28
  L 263.06 426.18
  Q 262.68 426.88 262.54 426.10
  L 258.31 401.61
  L 380.71 181.22
  A 0.40 0.40 0.0 0 0 380.36 180.63
  L 127.29 183.96
  L 106.58 168.23
  Q 105.86 167.68 106.77 167.66
  L 407.98 163.70
  Q 408.86 163.69 408.43 164.46
  L 319.13 325.27
  Z"
/>
<path fill="#ff4c29" d="
  M 258.31 401.61
  Q 247.06 335.95 236.04 270.49
  C 235.44 266.96 233.68 265.03 230.64 262.72
  Q 179.04 223.53 127.29 183.96
  L 380.36 180.63
  A 0.40 0.40 0.0 0 1 380.71 181.22
  L 258.31 401.61
  Z"
/>
<path fill="#ff4c29" d="
  M 102.91 184.06
  L 221.24 274.18
  A 1.53 1.48 14.5 0 1 221.81 275.11
  L 246.82 422.54
  L 218.85 472.65
  A 0.38 0.38 0.0 0 1 218.14 472.52
  L 188.09 295.72
  A 2.11 2.08 14.1 0 0 187.30 294.42
  L 44.58 185.67
  A 0.39 0.39 0.0 0 1 44.81 184.97
  L 102.91 184.06
  Z"
/>
<path fill="#ff00ff" d="
  M 319.13 325.27
  Q 319.20 326.29 318.28 326.93
  Q 318.19 325.76 319.13 325.27
  Z"
/>
<path fill="#ff00ff" d="
  M 316.78 329.52
  Q 316.42 330.89 315.62 331.59
  Q 315.79 330.32 316.78 329.52
  Z"
/>
<path fill="#ff00ff" d="
  M 274.69 405.49
  L 272.52 409.47
  Q 273.04 407.24 274.69 405.49
  Z"
/>
<path fill="#ff00ff" d="
  M 270.70 412.50
  Q 270.25 414.47 268.97 415.28
  Q 269.56 413.69 270.70 412.50
  Z"
/>
</svg>
